<?xml version="1.0" standalone="no"?>
<!DOCTYPE svg PUBLIC "-//W3C//DTD SVG 20010904//EN"
 "http://www.w3.org/TR/2001/REC-SVG-20010904/DTD/svg10.dtd">
<svg version="1.0" xmlns="http://www.w3.org/2000/svg"
 width="512.000000pt" height="512.000000pt" viewBox="0 0 512.000000 512.000000"
 preserveAspectRatio="xMidYMid meet">

<g transform="translate(0.000000,512.000000) scale(0.100000,-0.100000)"
fill="#000000" stroke="none">
<path d="M2345 4935 l-25 -24 0 -536 c0 -488 -1 -535 -16 -535 -77 0 -189 -88
-212 -166 -22 -75 -12 -146 30 -206 19 -28 19 -28 0 -55 -10 -16 -24 -43 -30
-62 -23 -66 -11 -144 30 -203 19 -28 19 -28 0 -55 -68 -98 -54 -211 36 -302
29 -29 50 -57 45 -61 -4 -4 -143 -128 -308 -275 -165 -147 -322 -292 -349
-323 -292 -336 -347 -814 -142 -1237 95 -196 215 -341 391 -472 511 -382 1178
-342 1651 100 104 97 195 222 264 362 212 429 159 909 -137 1246 -41 47 -581
541 -661 604 -2 2 21 27 50 56 90 91 104 204 36 302 -19 27 -19 27 0 55 10 15
24 42 30 61 23 66 11 144 -30 204 -19 27 -19 27 0 55 57 81 54 180 -8 279 -12
18 -11 27 5 63 27 60 96 127 163 158 50 23 74 26 202 32 167 7 198 17 259 86
84 95 81 217 -6 314 -59 66 -105 80 -252 80 -198 0 -372 -51 -516 -150 l-45
-31 0 306 0 306 -25 24 c-24 25 -26 25 -215 25 -189 0 -191 0 -215 -25z m295
-230 l0 -95 -80 -40 -80 -40 0 135 0 135 80 0 80 0 0 -95z m0 -385 l0 -110
-80 -40 -80 -40 0 110 0 110 78 39 c42 22 78 40 80 41 1 0 2 -49 2 -110z m868
-54 c27 -55 -30 -110 -107 -104 l-39 3 45 78 c43 74 46 77 67 64 11 -8 27 -26
34 -41z m-260 36 c-17 -40 -94 -162 -102 -162 -6 0 -32 -11 -58 -24 l-48 -23
0 83 0 82 63 21 c94 30 152 40 145 23z m-393 -411 c-43 -85 -55 -70 -55 66 l0
117 38 39 37 38 3 -104 c2 -95 0 -109 -23 -156z m-215 44 l0 -95 -80 0 -80 0
0 55 0 55 78 39 c42 22 78 40 80 41 1 0 2 -43 2 -95z m211 -284 c16 -16 29
-39 29 -51 0 -12 -13 -35 -29 -51 l-29 -29 -262 0 -262 0 -29 29 c-16 16 -29
39 -29 51 0 12 13 35 29 51 l29 29 262 0 262 0 29 -29z m0 -318 c29 -29 29
-77 0 -106 -21 -21 -29 -22 -279 -25 -279 -2 -296 0 -320 51 -11 22 -11 32 0
54 24 51 41 53 320 51 250 -3 258 -4 279 -25z m0 -322 c16 -16 29 -39 29 -51
0 -12 -13 -35 -29 -51 l-29 -29 -262 0 -262 0 -29 29 c-16 16 -29 39 -29 51 0
12 13 35 29 51 l29 29 262 0 262 0 29 -29z m-271 -296 c0 -3 -20 -35 -44 -72
-29 -45 -77 -97 -143 -155 l-100 -87 -17 82 c-9 44 -13 84 -9 88 5 4 44 39 88
78 l80 71 73 0 c39 0 72 -2 72 -5z m319 -185 l141 -125 -105 -3 -105 -3 -79
68 c-44 37 -80 70 -80 73 -2 11 72 121 79 118 4 -2 71 -59 149 -128z m-767
-176 l16 -76 -37 -33 c-20 -18 -61 -54 -91 -79 l-55 -47 -14 77 -15 77 85 78
c46 43 87 78 90 79 3 0 13 -34 21 -76z m735 -201 c162 -141 315 -281 340 -312
53 -68 106 -174 130 -261 24 -89 24 -272 0 -360 -66 -244 -255 -433 -517 -518
-381 -124 -818 46 -984 382 -56 113 -71 183 -70 326 0 113 3 133 31 213 36
102 80 179 143 248 58 65 601 537 618 538 7 1 146 -114 309 -256z m460 -5 c56
-51 100 -94 98 -96 -2 -2 -54 4 -117 14 l-113 17 -75 65 c-41 36 -82 72 -90
79 -12 11 3 13 90 13 l105 -1 102 -91z m-1521 -80 c18 -85 19 -79 -25 -134
-21 -27 -54 -77 -73 -112 l-35 -63 -37 91 -37 92 37 45 c47 58 146 154 152
148 2 -2 10 -32 18 -67z m1802 -296 c31 -78 68 -220 59 -229 -3 -2 -43 15 -90
38 l-84 42 -18 56 c-9 31 -34 89 -56 129 -21 41 -39 75 -39 76 0 2 44 -5 97
-13 l97 -16 34 -83z m-2008 -344 l0 -77 -77 33 -78 33 3 69 c3 73 23 179 42
229 12 30 13 28 60 -90 44 -107 49 -129 50 -197z m2070 -106 c0 -76 -77 -352
-99 -352 -3 0 -25 38 -48 84 l-42 84 15 53 c8 30 17 95 21 146 l6 91 73 -36
c70 -34 74 -38 74 -70z m-2118 -126 l75 -29 37 -91 c20 -50 39 -97 42 -103 5
-10 -14 -13 -75 -13 l-82 0 -20 48 c-17 40 -69 204 -69 219 0 3 4 3 8 1 5 -1
42 -16 84 -32z m1883 -327 c35 -69 36 -71 19 -97 -43 -65 -246 -253 -260 -240
-2 3 7 53 20 111 23 101 27 110 78 169 30 35 65 78 77 96 12 17 24 32 27 32 2
0 20 -32 39 -71z m-1547 -118 c31 -27 85 -67 119 -89 l63 -40 -86 -37 c-83
-35 -86 -36 -112 -19 -37 23 -196 184 -211 212 l-12 22 91 0 92 0 56 -49z
m1130 -233 c-12 -54 -27 -98 -36 -106 -37 -28 -275 -89 -315 -80 -10 2 10 33
64 98 76 91 82 96 152 121 39 14 88 33 107 41 19 9 38 17 41 17 4 1 -2 -41
-13 -91z m-668 1 c25 -6 85 -14 134 -17 l88 -7 -68 -83 -69 -83 -45 7 c-66 10
-207 51 -270 80 l-55 25 100 44 c109 48 119 49 185 34z"/>
</g>
</svg>
